<svg width="16" height="16" viewBox="0 0 16 16" fill="none" xmlns="http://www.w3.org/2000/svg">
<path d="M10.4253 0.378C10.416 0.374 10.4073 0.370656 10.398 0.368C9.64066 0.129344 8.83534 0 8 0C4.404 0 1.356 2.38534 0.352 5.65666C0.348656 5.668 0.346 5.67866 0.343344 5.69C0.122 6.422 0 7.19666 0 8C0 10.0667 0.794656 11.9467 2.08534 13.368C2.10869 13.4073 2.13869 13.4407 2.17534 13.4673C3.636 15.022 5.70334 16 8 16C12.0547 16 15.406 12.966 15.9227 9.05066C15.9307 9.02466 15.9333 8.99931 15.9347 8.97266C15.974 8.65334 16 8.33 16 8C16 4.43466 13.654 1.408 10.4253 0.378ZM8 15.3333C5.92466 15.3333 4.05134 14.4627 2.716 13.072C2.76734 12.562 2.89534 11.0093 2.65134 10.2333C2.53066 9.85 2.27 9.58866 2.04 9.35866C1.87534 9.194 1.71934 9.03866 1.63534 8.858C1.44134 8.44534 1.16 6.828 1.00869 5.79C1.94866 2.82334 4.72666 0.666656 8 0.666656C8.554 0.666656 9.09134 0.733312 9.61 0.850656C9.41266 1.09331 9.256 1.36466 9.15534 1.57266C8.76734 1.43 8.22269 1.268 7.91934 1.34331C7.41669 1.46866 6.89334 2.11531 6.396 2.80531C6.32134 2.90866 6.21666 3.11866 6.13734 3.28997C5.762 3.26131 5.384 3.43062 5.07734 3.75931C4.77669 4.08131 4.548 4.57931 4.71534 4.96466C4.818 5.19866 5.04269 5.33331 5.33334 5.33331C5.63869 5.33331 5.92534 5.16597 6.22934 4.98797C6.49669 4.83197 6.77334 4.66997 7.00469 4.66663C8.20934 4.64062 8.82403 4.94397 9.00534 5.22397C9.05469 5.29997 9.07134 5.37463 9.05534 5.45131C8.81334 5.49666 8.12734 5.42666 7.66 5.37931C6.872 5.30066 6.05734 5.21866 5.582 5.34397C4.992 5.49931 4.64866 5.90597 4.054 6.81731C3.78734 7.22666 3.86134 8.08066 4.02734 8.46466C4.14134 8.72931 4.54734 9.20466 4.89869 9.31666C5.18534 9.40666 5.55603 9.356 5.94869 9.302C6.24469 9.26 6.69203 9.19934 6.82134 9.28066C7.12734 9.47666 7.33334 10.3013 7.33334 11.3307C7.32934 11.386 7.25 11.5473 7.20334 11.644C7.08134 11.892 6.956 12.1493 7.00734 12.4C7.21334 13.414 7.98 14.0027 8.61 14.0027C8.63934 14.0027 8.668 14.0013 8.696 13.9987C9.61734 13.9167 11.1333 12.73 11.3273 11.73C11.3747 11.484 11.3527 11.114 11.3287 10.7227C11.3067 10.3593 11.282 9.94731 11.326 9.73531C11.37 9.52331 11.7187 8.88866 11.9514 8.50731C12.0347 8.36997 12.0094 8.19331 11.8894 8.08597C11.6807 7.89797 11.3507 7.58397 11.27 7.47197C11.194 7.36597 11.0674 7.12262 10.9414 6.85997C11.0414 6.89531 11.12 6.92731 11.158 6.95062C11.5334 7.18262 12.432 8.18462 12.7474 8.55062C12.8254 8.64197 12.9454 8.68397 13.0647 8.66063C13.5607 8.56328 13.6247 8.05197 13.6661 7.71328C13.6814 7.59128 13.7094 7.36528 13.7454 7.32394C14.0174 7.26194 14.3694 7.81259 14.6508 8.25928C14.8454 8.56862 15.0334 8.85928 15.2454 9.07263C14.724 12.608 11.678 15.3333 8 15.3333Z" fill="white"/>
</svg>
