<svg width="26" height="25" viewBox="0 0 26 25" fill="none" xmlns="http://www.w3.org/2000/svg">
<path d="M24.1186 9.92514L24.1182 9.92405C24.0817 9.81082 23.9837 9.7338 23.8697 9.72349L23.869 9.72343L16.865 9.08532L16.2698 9.0311L16.0356 8.48122L13.2669 1.97902C13.2668 1.97881 13.2668 1.97859 13.2667 1.97838C13.2186 1.86681 13.1133 1.79999 13.0001 1.79999C12.8873 1.79999 12.7822 1.86637 12.7339 1.97871C12.7338 1.97893 12.7337 1.97914 12.7336 1.97936L9.96453 8.48128L9.73036 9.03111L9.13521 9.08533L2.13173 9.72328C2.13151 9.7233 2.13129 9.72332 2.13107 9.72334C2.01663 9.73422 1.91858 9.81113 1.88146 9.92567C1.84404 10.0411 1.87954 10.1639 1.96602 10.2397L1.96792 10.2413L7.26212 14.9L7.70789 15.2922L7.57686 15.8714L6.01595 22.7703C6.01593 22.7704 6.01591 22.7704 6.01589 22.7705C5.98886 22.8911 6.03568 23.0093 6.12885 23.077L24.1186 9.92514ZM24.1186 9.92514C24.1557 10.0399 24.1212 10.1632 24.0321 10.2415L24.0312 10.2422L18.737 14.8999L18.2912 15.2921L18.4222 15.8714L19.9832 22.7707L24.1186 9.92514ZM6.44374 23.0913L6.44418 23.0911L12.4858 19.4681L13.0002 19.1596L13.5145 19.4681L19.5539 23.0911L19.5563 23.0925C19.6527 23.1508 19.7745 23.1466 19.869 23.0779L19.869 23.0779C19.9639 23.0089 20.0099 22.8898 19.9834 22.7713L6.44374 23.0913ZM6.44374 23.0913C6.39448 23.1209 6.34478 23.1333 6.29732 23.1333C6.24135 23.1333 6.18317 23.1163 6.12905 23.0771L6.44374 23.0913Z" stroke="white" stroke-width="2"/>
</svg>
